PathFileType	4	(X/Y/Z)	C:\Users\Basilio\Documents\Thesis Gigler\squatting_fais\c3dfiles\075\SJ_pre2\markers_experimental.trc
DataRate	CameraRate	NumFrames	NumMarkers	Units	OrigDataRate	OrigDataStartFrame	OrigNumFrames
200.000000	200.000000	4	61	mm	200.000000	847	1695
Frame#	Time	FHD			LBHD			C7			T10			CLAV			LSHO			LUUPA			LMUPA			LDUPA			LLEP			LMEP			LRAD			LUL			LRFIN			RSHO			RUPA1			RMUPA			RDUPA			RLEP			RMEP			RRAD			RUL			RUFIN			LASI			RASI			USACR			LSACR			RSACR			LTHI1			LTHI2			LTHI3			LTHI4			LLFC			LMFC			LTIB1			LTIB2			LTIB3			LTIB4			LLMAL			LMMAL			LHEE			LMT1			LMT2			LMT5			RTHI			RTHI2			RTHI3			RTHI4			RLFC			RMFC			RTIB1			RTIB2			RTIB3			RTIB4			RLMAL			RMMAL			RHEE			RMT1			RMT2			RMT5			RBHD			
		X1	Y1	Z1	X2	Y2	Z2	X3	Y3	Z3	X4	Y4	Z4	X5	Y5	Z5	X6	Y6	Z6	X7	Y7	Z7	X8	Y8	Z8	X9	Y9	Z9	X10	Y10	Z10	X11	Y11	Z11	X12	Y12	Z12	X13	Y13	Z13	X14	Y14	Z14	X15	Y15	Z15	X16	Y16	Z16	X17	Y17	Z17	X18	Y18	Z18	X19	Y19	Z19	X20	Y20	Z20	X21	Y21	Z21	X22	Y22	Z22	X23	Y23	Z23	X24	Y24	Z24	X25	Y25	Z25	X26	Y26	Z26	X27	Y27	Z27	X28	Y28	Z28	X29	Y29	Z29	X30	Y30	Z30	X31	Y31	Z31	X32	Y32	Z32	X33	Y33	Z33	X34	Y34	Z34	X35	Y35	Z35	X36	Y36	Z36	X37	Y37	Z37	X38	Y38	Z38	X39	Y39	Z39	X40	Y40	Z40	X41	Y41	Z41	X42	Y42	Z42	X43	Y43	Z43	X44	Y44	Z44	X45	Y45	Z45	X46	Y46	Z46	X47	Y47	Z47	X48	Y48	Z48	X49	Y49	Z49	X50	Y50	Z50	X51	Y51	Z51	X52	Y52	Z52	X53	Y53	Z53	X54	Y54	Z54	X55	Y55	Z55	X56	Y56	Z56	X57	Y57	Z57	X58	Y58	Z58	X59	Y59	Z59	X60	Y60	Z60	X61	Y61	Z61	

848	4.235	12.45743656158448	1183.029541015625	-874.345886230469	-151.2755737304688	1098.719360351563	-955.3802490234377	-222.8114929199219	1031.91357421875	-903.1585693359377	-448.8321228027345	811.9096679687502	-910.6858520507815	-133.9903869628907	901.8831787109377	-901.3447875976565	-118.0162506103516	958.053161621094	-1048.584594726563	-207.8711853027344	860.233337402344	-1232.423828125	-214.8633422851563	813.5088500976565	-1216.778930664063	-241.5290832519532	811.3475341796877	-1271.239379882813	-296.4296569824219	746.2559204101564	-1295.443725585938	-363.7195739746094	806.2046508789065	-1278.263916015625	-464.2749328613282	652.2667236328126	-1129.780883789063	-432.4769897460939	589.4180908203126	-1155.657104492188	-438.2118225097657	644.6635131835939	-1070.003173828125	-137.8999938964844	950.773864746094	-747.0825805664064	-251.6154174804688	878.4228515625002	-576.7884521484376	-261.7310485839844	828.9761352539065	-581.5573120117189	-296.2574462890626	843.1453247070315	-533.7479248046876	-345.4092712402344	794.1616210937502	-505.9519958496095	-420.3789672851564	832.7227172851565	-526.9918212890626	-436.2017211914064	604.8468627929689	-657.8977050781251	-469.9648742675782	658.4557495117189	-699.7228393554689	-425.0472106933595	653.3218383789064	-750.8766479492189	-425.0785522460939	595.0423583984376	-1030.323852539063	-423.9645996093751	613.7836303710939	-786.0679321289065	-533.1473388671876	726.7906494140626	-912.4864501953127	-559.3935546875001	705.4926757812501	-937.9353027343752	-558.7769775390626	706.9761962890626	-882.6727294921877	-399.2724609375001	518.6738891601564	-1131.6748046875	-316.2927856445313	511.7408142089845	-1142.347045898438	-297.0635375976563	548.3159179687501	-1114.151489257813	-282.9729309082032	463.9044799804689	-1153.488647460938	-201.9745635986329	409.5862426757814	-1151.371704101563	-158.4303894042969	401.783416748047	-1026.959350585938	-169.0272369384766	286.9509277343751	-1108.375610351563	-245.5556182861329	272.1852722167969	-1153.969848632813	-212.4320068359376	253.2909545898438	-1132.401123046875	-251.6265563964844	188.9226684570313	-1098.55029296875	-387.3411560058595	91.74867248535158	-1105.663818359375	-345.1541137695313	99.7729187011719	-1024.851684570313	-440.6072998046876	49.6269874572754	-1051.447387695313	-228.7339935302735	52.37169265747072	-1072.30322265625	-236.6404113769532	59.34077072143556	-1120.098999023438	-283.8693847656251	42.97899627685548	-1165.163818359375	-439.4015197753907	534.4970092773439	-693.5913696289064	-375.0374755859376	545.9227294921876	-692.1900634765626	-365.9436035156251	573.4214477539064	-712.8577880859376	-315.4838867187501	488.9332580566407	-679.3330688476564	-197.7974090576172	414.202850341797	-692.1235961914064	-163.3609008789063	410.1539916992189	-812.1655883789065	-182.2357940673828	275.5491638183594	-757.4000854492189	-265.3216247558594	227.2786407470704	-702.5903930664064	-234.5660858154297	209.9168853759766	-733.8239135742189	-261.3600158691407	174.3426666259766	-774.6239013671877	-375.9539184570313	89.95175170898439	-740.2083740234376	-333.3039550781251	104.416748046875	-820.3547363281252	-424.9631958007814	48.78734588623048	-800.7958984375002	-217.4861450195313	58.60342407226564	-764.2429809570314	-227.3127899169922	59.43641662597658	-723.6158447265626	-270.2273559570313	36.80091094970704	-677.4675903320314	-111.0608596801758	1115.800048828125	-799.4643554687502	
849	4.24	12.50859260559082	1183.0634765625	-874.3408203125002	-151.1346893310547	1098.983154296875	-955.4359130859377	-222.7757263183594	1031.980834960938	-903.1315917968752	-448.9015502929689	812.1127929687502	-910.6328125000002	-133.8518524169922	902.0608520507815	-901.3640747070315	-117.5325012207032	958.0814208984377	-1048.342651367188	-207.8663024902344	860.4077148437502	-1232.423583984375	-214.8285675048829	813.6931152343752	-1216.823364257813	-241.4273681640626	811.5404052734377	-1271.332397460938	-296.2907714843751	746.4197998046876	-1295.427490234375	-363.6978759765626	806.3291015625002	-1278.236206054688	-464.2893981933595	652.3426513671876	-1129.844604492188	-432.3782348632814	589.5327148437501	-1155.781982421875	-438.2057189941407	644.7390136718751	-1070.063842773438	-137.8135375976563	950.7999267578127	-747.0633544921876	-251.3330383300782	878.3616943359377	-576.7737426757814	-261.5058898925782	828.972351074219	-581.5975952148439	-296.0502624511719	843.0460205078127	-533.7084350585939	-345.1040954589844	794.1287841796877	-505.9586486816407	-420.1314697265626	832.6749267578127	-527.0050048828126	-436.1233215332032	604.7998046875001	-657.9552001953126	-469.791473388672	658.4407348632814	-699.7438354492189	-424.9481811523439	653.3541259765626	-750.9083251953126	-422.4271240234376	596.0308227539064	-1028.690551757813	-423.8884887695314	615.6585083007814	-784.4959106445315	-533.4235229492189	726.7466430664064	-912.3513183593752	-558.8075561523439	705.3260498046876	-938.1999511718752	-558.7118530273439	707.0639038085939	-882.6461181640627	-398.9984130859376	518.6157836914064	-1131.67919921875	-316.1682739257813	511.7761230468751	-1142.422607421875	-297.0114440917969	548.2976074218751	-1114.184692382813	-282.1561279296876	463.7564392089845	-1153.248901367188	-201.9090118408204	409.4942016601564	-1151.447875976563	-158.4495391845703	401.7381896972657	-1027.07470703125	-168.9837493896485	286.9249877929688	-1108.396484375	-245.5131225585938	272.2334289550782	-1154.023681640625	-212.4276580810547	253.3284912109376	-1132.391479492188	-251.6607208251954	188.8922271728516	-1098.558471679688	-387.2251281738282	91.81841278076173	-1105.679565429688	-345.1452331542969	99.75645446777347	-1024.864501953125	-440.5626831054689	49.64795303344728	-1051.465576171875	-228.5736083984376	52.37971496582033	-1072.179443359375	-236.609359741211	59.30502700805665	-1120.077270507813	-283.8469238281251	42.97940063476563	-1165.182495117188	-439.3104553222657	534.5644531250001	-693.5957031250001	-375.0025634765626	545.9350585937501	-692.1586303710939	-365.8623046875001	573.4412841796876	-712.9042358398439	-315.4728393554688	488.8832092285157	-679.3668212890626	-197.7596740722657	414.2171020507814	-692.0900268554689	-163.3514709472657	410.3445129394532	-812.166198730469	-182.1942443847657	275.5299377441407	-757.4267578125001	-265.3518981933594	227.2524871826172	-702.6011352539064	-234.1933898925782	209.7579956054688	-733.3980102539064	-261.3663940429688	174.3523864746094	-774.6130371093752	-375.9815673828126	89.98811340332033	-740.2266235351564	-333.2936401367188	104.3193740844727	-820.3279418945315	-424.9064025878907	48.77876663208009	-800.7930908203127	-217.5208892822266	58.5719566345215	-764.3038940429689	-227.3277435302735	59.49619674682619	-723.6165771484376	-270.2372131347657	36.78779220581055	-677.4794921875001	-111.4367065429688	1115.578247070313	-799.964294433594	
850	4.245	12.53029251098633	1183.271362304688	-874.3142089843752	-151.1818084716797	1098.989868164063	-955.4774169921877	-222.8037872314454	1032.077392578125	-903.120544433594	-448.7713928222657	812.159851074219	-910.6726684570315	-133.7854309082032	902.1528930664065	-901.4041748046877	-117.5151138305664	958.2691040039065	-1048.428588867188	-207.9056854248047	860.6292114257815	-1232.450927734375	-214.5812377929688	813.8197021484377	-1216.812255859375	-241.5259094238282	811.687194824219	-1271.401245117188	-296.4760131835938	746.6041259765626	-1295.570678710938	-363.6659545898438	806.4630126953127	-1278.275634765625	-464.1423645019532	652.3676147460939	-1129.834838867188	-432.2193908691407	589.6802368164064	-1155.800415039063	-438.0464477539064	644.7825927734376	-1070.046875	-137.6943817138672	950.820495605469	-747.0764770507814	-251.1582489013672	878.3364257812502	-576.7625122070314	-261.3040161132813	828.8987426757815	-581.6843261718751	-295.8195800781251	842.948669433594	-533.7669067382814	-344.8634643554688	794.0679931640627	-505.980682373047	-419.890106201172	832.604187011719	-526.8764038085939	-436.013641357422	604.8087158203126	-658.0336914062501	-469.7168579101564	658.4799194335939	-699.7119750976564	-424.8872680664064	653.3631591796876	-750.9032592773439	-424.7579650878907	595.0474853515626	-1030.234497070313	-423.9089660644532	613.7660522460939	-785.9578247070315	-532.8836669921876	726.9266357421876	-912.5742187500002	-559.0883789062501	705.6389770507814	-938.073669433594	-558.5726928710939	707.1165161132814	-882.7076416015627	-399.0223083496095	518.7205200195314	-1131.79443359375	-316.0553588867188	511.7559814453126	-1142.542358398438	-296.9547424316407	548.3080444335939	-1114.282592773438	-282.1415710449219	463.7084350585939	-1153.340698242188	-201.9935302734376	409.4932250976564	-1151.55029296875	-158.3391571044922	401.7150878906251	-1027.075073242188	-168.8840942382813	286.9250488281251	-1108.3974609375	-245.5289611816407	272.1565246582032	-1154.076904296875	-212.4534301757813	253.1805419921876	-1132.477661132813	-252.1557617187501	188.9985504150391	-1098.985961914063	-387.2383117675782	91.8068084716797	-1105.685913085938	-345.1409301757813	99.76203918457034	-1024.893310546875	-440.6009521484376	49.62862014770509	-1051.4921875	-228.6391906738282	52.40637588500978	-1072.209106445313	-236.5805053710938	59.30088043212892	-1120.080688476563	-283.8424072265626	42.96996307373048	-1165.225708007813	-439.2289123535157	534.5880737304689	-693.6434936523439	-374.9382629394532	545.9710083007814	-692.2069702148439	-365.7964172363282	573.4816284179689	-712.9329223632814	-315.3887939453126	488.9639892578126	-679.3400878906251	-197.7241668701172	414.1936950683595	-692.1683959960939	-163.2379760742188	410.1898498535157	-812.1166992187502	-182.2195892333985	275.4887695312501	-757.4308471679689	-265.3492431640626	227.2042541503907	-702.5726928710939	-234.2732086181641	209.8879394531251	-733.4874877929689	-261.3737487792969	174.3272399902344	-774.6278076171877	-375.9738159179688	89.97494506835939	-740.2158203125001	-333.2823791503907	104.3380661010742	-820.3237915039065	-424.9021606445314	48.77858352661134	-800.7872314453127	-217.4972686767579	58.59012603759767	-764.2917480468751	-227.3844757080079	59.42299652099611	-723.6202392578126	-270.2256164550782	36.81392669677735	-677.4739379882814	-111.494873046875	1115.621826171875	-799.8428344726565	
851	4.25	12.54516983032227	1183.390014648438	-874.2632446289065	-151.2334747314453	1098.926147460938	-955.426452636719	-222.6908264160157	1032.168701171875	-903.1069946289065	-448.6838989257814	812.2937011718752	-910.6607666015627	-133.6434173583985	902.3101196289065	-901.4326782226565	-117.4447555541992	958.4145507812502	-1048.450805664063	-207.7648315429688	860.6982421875002	-1232.368896484375	-214.8262023925782	814.0405273437502	-1216.899291992188	-241.4407348632813	811.8527832031252	-1271.420043945313	-296.4004516601563	746.7639770507814	-1295.605712890625	-363.6600952148438	806.5858154296877	-1278.235229492188	-464.0834350585939	652.4763793945314	-1129.873657226563	-432.2481079101564	589.7631225585939	-1155.829956054688	-437.9974670410157	644.8397216796876	-1070.086547851563	-137.5587768554688	950.896667480469	-747.0412597656251	-250.9754638671876	878.2439575195315	-576.7960815429689	-261.0858764648438	828.8662719726565	-581.7398681640626	-295.5968017578126	842.8726196289065	-533.7548828125001	-344.5916748046876	794.0003662109377	-506.0086975097657	-419.5853271484376	832.5461425781252	-526.8922119140626	-435.9235839843751	604.7840576171876	-658.0657348632814	-469.6448974609376	658.4955444335939	-699.7437744140626	-424.8280029296876	653.3939208984376	-750.9164428710939	-425.2580871582032	594.7324218750001	-1030.462646484375	-424.0439453125001	613.2889404296876	-786.1663818359377	-532.7902221679689	726.9407958984376	-912.6316528320315	-559.0738525390626	705.7669677734376	-938.071960449219	-558.5186767578126	707.1941528320314	-882.711120605469	-398.9105224609376	518.6802978515626	-1131.803955078125	-316.0037231445313	511.7355957031251	-1142.537109375	-296.8017883300782	548.2992553710939	-1114.30859375	-282.1018371582032	463.7167968750001	-1153.321411132813	-201.8429718017579	409.4937438964845	-1151.581420898438	-158.2849578857422	401.6638488769532	-1027.156982421875	-168.8971710205078	286.9291687011719	-1108.564331054688	-245.4323883056641	272.1324768066407	-1154.126342773438	-212.4745483398438	253.1762847900391	-1132.485961914063	-252.1370391845704	188.9768371582032	-1099.020629882813	-387.1945800781251	91.80097961425783	-1105.703735351563	-345.1782531738282	99.74212646484378	-1024.926513671875	-440.6276855468751	49.64098739624025	-1051.501586914063	-228.6037902832032	52.40896606445314	-1072.2255859375	-236.5587005615235	59.30362701416017	-1120.068359375	-283.8748168945313	42.98193740844727	-1165.227294921875	-439.1589660644532	534.6347045898439	-693.6799926757814	-374.8982543945313	545.9901733398439	-692.2468872070314	-365.7228698730469	573.5065307617189	-712.9863281250001	-315.3282470703126	488.9844665527345	-679.3668212890626	-197.6802520751954	414.1538696289064	-692.0904541015626	-163.1112060546875	409.9938354492189	-812.1860961914065	-182.2609100341797	275.4166564941407	-757.4511108398439	-265.3133544921876	227.2525177001954	-702.6146850585939	-234.2313690185547	209.9009246826172	-733.5094604492189	-261.4101867675782	174.2996368408203	-774.6713867187502	-375.9345703125001	89.99639892578126	-740.2210083007814	-333.1708068847657	104.3765182495117	-820.239685058594	-424.895477294922	48.79998779296876	-800.809509277344	-217.5062561035157	58.59100723266603	-764.2593994140626	-227.3072357177735	59.4838333129883	-723.5990600585939	-270.2404479980469	36.81169128417969	-677.4831542968751	-111.4871444702149	1115.64306640625	-799.812438964844	
